<mxfile host="app.diagrams.net" agent="Mozilla/5.0 (Windows NT 10.0; Win64; x64) AppleWebKit/537.36 (KHTML, like Gecko) Chrome/141.0.0.0 Safari/537.36 Edg/141.0.0.0" version="28.2.7">
  <diagram name="Seite-1" id="wup275L2_pUpVRQk9bDB">
    <mxGraphModel dx="1705" dy="1196" grid="0" gridSize="10" guides="1" tooltips="1" connect="1" arrows="1" fold="1" page="0" pageScale="1" pageWidth="1169" pageHeight="827" math="0" shadow="0">
      <root>
        <mxCell id="0" />
        <mxCell id="1" parent="0" />
        <mxCell id="5F9uBmi5xAu1N6JX-gV2-7" style="edgeStyle=none;curved=1;rounded=0;orthogonalLoop=1;jettySize=auto;html=1;fontSize=12;startSize=8;endSize=8;" edge="1" parent="1" source="5F9uBmi5xAu1N6JX-gV2-1" target="5F9uBmi5xAu1N6JX-gV2-2">
          <mxGeometry relative="1" as="geometry" />
        </mxCell>
        <mxCell id="5F9uBmi5xAu1N6JX-gV2-8" value="[0-9]" style="edgeLabel;html=1;align=center;verticalAlign=middle;resizable=0;points=[];fontSize=12;" vertex="1" connectable="0" parent="5F9uBmi5xAu1N6JX-gV2-7">
          <mxGeometry x="-0.0674" y="1" relative="1" as="geometry">
            <mxPoint as="offset" />
          </mxGeometry>
        </mxCell>
        <mxCell id="5F9uBmi5xAu1N6JX-gV2-27" style="edgeStyle=none;curved=1;rounded=0;orthogonalLoop=1;jettySize=auto;html=1;exitX=1;exitY=1;exitDx=0;exitDy=0;fontSize=12;startSize=8;endSize=8;" edge="1" parent="1" source="5F9uBmi5xAu1N6JX-gV2-1" target="5F9uBmi5xAu1N6JX-gV2-26">
          <mxGeometry relative="1" as="geometry" />
        </mxCell>
        <mxCell id="5F9uBmi5xAu1N6JX-gV2-28" value="\." style="edgeLabel;html=1;align=center;verticalAlign=middle;resizable=0;points=[];fontSize=12;" vertex="1" connectable="0" parent="5F9uBmi5xAu1N6JX-gV2-27">
          <mxGeometry x="-0.1535" y="2" relative="1" as="geometry">
            <mxPoint as="offset" />
          </mxGeometry>
        </mxCell>
        <mxCell id="5F9uBmi5xAu1N6JX-gV2-1" value="q0" style="ellipse;whiteSpace=wrap;html=1;aspect=fixed;" vertex="1" parent="1">
          <mxGeometry x="40" y="176" width="80" height="80" as="geometry" />
        </mxCell>
        <mxCell id="5F9uBmi5xAu1N6JX-gV2-16" style="edgeStyle=none;curved=1;rounded=0;orthogonalLoop=1;jettySize=auto;html=1;entryX=0;entryY=0.5;entryDx=0;entryDy=0;fontSize=12;startSize=8;endSize=8;" edge="1" parent="1" source="5F9uBmi5xAu1N6JX-gV2-2" target="5F9uBmi5xAu1N6JX-gV2-15">
          <mxGeometry relative="1" as="geometry" />
        </mxCell>
        <mxCell id="5F9uBmi5xAu1N6JX-gV2-19" value="\." style="edgeLabel;html=1;align=center;verticalAlign=middle;resizable=0;points=[];fontSize=12;" vertex="1" connectable="0" parent="5F9uBmi5xAu1N6JX-gV2-16">
          <mxGeometry x="-0.1798" y="1" relative="1" as="geometry">
            <mxPoint x="1" as="offset" />
          </mxGeometry>
        </mxCell>
        <mxCell id="5F9uBmi5xAu1N6JX-gV2-2" value="q1" style="ellipse;whiteSpace=wrap;html=1;aspect=fixed;" vertex="1" parent="1">
          <mxGeometry x="209" y="176" width="80" height="80" as="geometry" />
        </mxCell>
        <mxCell id="5F9uBmi5xAu1N6JX-gV2-9" style="edgeStyle=none;curved=1;rounded=0;orthogonalLoop=1;jettySize=auto;html=1;exitX=0;exitY=0;exitDx=0;exitDy=0;entryX=1;entryY=0;entryDx=0;entryDy=0;fontSize=12;startSize=8;endSize=8;" edge="1" parent="1" source="5F9uBmi5xAu1N6JX-gV2-2" target="5F9uBmi5xAu1N6JX-gV2-2">
          <mxGeometry relative="1" as="geometry">
            <Array as="points">
              <mxPoint x="249" y="100" />
            </Array>
          </mxGeometry>
        </mxCell>
        <mxCell id="5F9uBmi5xAu1N6JX-gV2-12" value="[0-9]" style="edgeLabel;html=1;align=center;verticalAlign=middle;resizable=0;points=[];fontSize=12;" vertex="1" connectable="0" parent="5F9uBmi5xAu1N6JX-gV2-9">
          <mxGeometry x="0.4251" y="-12" relative="1" as="geometry">
            <mxPoint as="offset" />
          </mxGeometry>
        </mxCell>
        <mxCell id="5F9uBmi5xAu1N6JX-gV2-10" style="edgeStyle=none;curved=1;rounded=0;orthogonalLoop=1;jettySize=auto;html=1;exitX=1;exitY=0;exitDx=0;exitDy=0;entryX=0;entryY=0;entryDx=0;entryDy=0;fontSize=12;startSize=8;endSize=8;" edge="1" parent="1" source="5F9uBmi5xAu1N6JX-gV2-1" target="5F9uBmi5xAu1N6JX-gV2-1">
          <mxGeometry relative="1" as="geometry">
            <Array as="points">
              <mxPoint x="80" y="114" />
            </Array>
          </mxGeometry>
        </mxCell>
        <mxCell id="5F9uBmi5xAu1N6JX-gV2-11" value="[+-]" style="edgeLabel;html=1;align=center;verticalAlign=middle;resizable=0;points=[];fontSize=12;" vertex="1" connectable="0" parent="5F9uBmi5xAu1N6JX-gV2-10">
          <mxGeometry x="0.4207" y="11" relative="1" as="geometry">
            <mxPoint as="offset" />
          </mxGeometry>
        </mxCell>
        <mxCell id="5F9uBmi5xAu1N6JX-gV2-21" style="edgeStyle=none;curved=1;rounded=0;orthogonalLoop=1;jettySize=auto;html=1;fontSize=12;startSize=8;endSize=8;" edge="1" parent="1" source="5F9uBmi5xAu1N6JX-gV2-15" target="5F9uBmi5xAu1N6JX-gV2-20">
          <mxGeometry relative="1" as="geometry" />
        </mxCell>
        <mxCell id="5F9uBmi5xAu1N6JX-gV2-22" value="[0-9]" style="edgeLabel;html=1;align=center;verticalAlign=middle;resizable=0;points=[];fontSize=12;" vertex="1" connectable="0" parent="5F9uBmi5xAu1N6JX-gV2-21">
          <mxGeometry x="-0.1348" y="1" relative="1" as="geometry">
            <mxPoint as="offset" />
          </mxGeometry>
        </mxCell>
        <mxCell id="5F9uBmi5xAu1N6JX-gV2-15" value="q2" style="ellipse;whiteSpace=wrap;html=1;aspect=fixed;" vertex="1" parent="1">
          <mxGeometry x="378" y="176" width="80" height="80" as="geometry" />
        </mxCell>
        <mxCell id="5F9uBmi5xAu1N6JX-gV2-46" style="edgeStyle=none;curved=1;rounded=0;orthogonalLoop=1;jettySize=auto;html=1;entryX=0.5;entryY=0;entryDx=0;entryDy=0;fontSize=12;startSize=8;endSize=8;" edge="1" parent="1" source="5F9uBmi5xAu1N6JX-gV2-20" target="5F9uBmi5xAu1N6JX-gV2-34">
          <mxGeometry relative="1" as="geometry" />
        </mxCell>
        <mxCell id="5F9uBmi5xAu1N6JX-gV2-47" value="[eE]" style="edgeLabel;html=1;align=center;verticalAlign=middle;resizable=0;points=[];fontSize=12;" vertex="1" connectable="0" parent="5F9uBmi5xAu1N6JX-gV2-46">
          <mxGeometry x="-0.1561" relative="1" as="geometry">
            <mxPoint as="offset" />
          </mxGeometry>
        </mxCell>
        <mxCell id="5F9uBmi5xAu1N6JX-gV2-20" value="q3" style="ellipse;whiteSpace=wrap;html=1;aspect=fixed;" vertex="1" parent="1">
          <mxGeometry x="547" y="176" width="80" height="80" as="geometry" />
        </mxCell>
        <mxCell id="5F9uBmi5xAu1N6JX-gV2-23" style="edgeStyle=none;curved=1;rounded=0;orthogonalLoop=1;jettySize=auto;html=1;exitX=1;exitY=0;exitDx=0;exitDy=0;entryX=0;entryY=0;entryDx=0;entryDy=0;fontSize=12;startSize=8;endSize=8;" edge="1" parent="1" source="5F9uBmi5xAu1N6JX-gV2-20" target="5F9uBmi5xAu1N6JX-gV2-20">
          <mxGeometry relative="1" as="geometry">
            <Array as="points">
              <mxPoint x="587" y="100" />
            </Array>
          </mxGeometry>
        </mxCell>
        <mxCell id="5F9uBmi5xAu1N6JX-gV2-24" value="[0-9]" style="edgeLabel;html=1;align=center;verticalAlign=middle;resizable=0;points=[];fontSize=12;" vertex="1" connectable="0" parent="5F9uBmi5xAu1N6JX-gV2-23">
          <mxGeometry x="0.4387" y="11" relative="1" as="geometry">
            <mxPoint x="1" as="offset" />
          </mxGeometry>
        </mxCell>
        <mxCell id="5F9uBmi5xAu1N6JX-gV2-30" style="edgeStyle=none;curved=1;rounded=0;orthogonalLoop=1;jettySize=auto;html=1;entryX=0;entryY=1;entryDx=0;entryDy=0;fontSize=12;startSize=8;endSize=8;" edge="1" parent="1" source="5F9uBmi5xAu1N6JX-gV2-26" target="5F9uBmi5xAu1N6JX-gV2-20">
          <mxGeometry relative="1" as="geometry">
            <mxPoint x="377.9999999999983" y="349" as="targetPoint" />
          </mxGeometry>
        </mxCell>
        <mxCell id="5F9uBmi5xAu1N6JX-gV2-31" value="[0-9]" style="edgeLabel;html=1;align=center;verticalAlign=middle;resizable=0;points=[];fontSize=12;" vertex="1" connectable="0" parent="5F9uBmi5xAu1N6JX-gV2-30">
          <mxGeometry x="-0.2388" y="5" relative="1" as="geometry">
            <mxPoint x="1" y="2" as="offset" />
          </mxGeometry>
        </mxCell>
        <mxCell id="5F9uBmi5xAu1N6JX-gV2-26" value="q4" style="ellipse;whiteSpace=wrap;html=1;aspect=fixed;" vertex="1" parent="1">
          <mxGeometry x="209" y="309" width="80" height="80" as="geometry" />
        </mxCell>
        <mxCell id="5F9uBmi5xAu1N6JX-gV2-53" style="edgeStyle=none;curved=1;rounded=0;orthogonalLoop=1;jettySize=auto;html=1;entryX=0;entryY=0.5;entryDx=0;entryDy=0;fontSize=12;startSize=8;endSize=8;" edge="1" parent="1" source="5F9uBmi5xAu1N6JX-gV2-34" target="5F9uBmi5xAu1N6JX-gV2-48">
          <mxGeometry relative="1" as="geometry" />
        </mxCell>
        <mxCell id="5F9uBmi5xAu1N6JX-gV2-54" value="[0-9]" style="edgeLabel;html=1;align=center;verticalAlign=middle;resizable=0;points=[];fontSize=12;" vertex="1" connectable="0" parent="5F9uBmi5xAu1N6JX-gV2-53">
          <mxGeometry x="-0.0393" relative="1" as="geometry">
            <mxPoint as="offset" />
          </mxGeometry>
        </mxCell>
        <mxCell id="5F9uBmi5xAu1N6JX-gV2-34" value="q5" style="ellipse;whiteSpace=wrap;html=1;aspect=fixed;" vertex="1" parent="1">
          <mxGeometry x="547" y="315" width="80" height="80" as="geometry" />
        </mxCell>
        <mxCell id="5F9uBmi5xAu1N6JX-gV2-48" value="q6" style="ellipse;whiteSpace=wrap;html=1;aspect=fixed;" vertex="1" parent="1">
          <mxGeometry x="698" y="315" width="80" height="80" as="geometry" />
        </mxCell>
        <mxCell id="5F9uBmi5xAu1N6JX-gV2-51" style="edgeStyle=none;curved=1;rounded=0;orthogonalLoop=1;jettySize=auto;html=1;exitX=0;exitY=1;exitDx=0;exitDy=0;entryX=1;entryY=1;entryDx=0;entryDy=0;fontSize=12;startSize=8;endSize=8;" edge="1" parent="1" source="5F9uBmi5xAu1N6JX-gV2-34" target="5F9uBmi5xAu1N6JX-gV2-34">
          <mxGeometry relative="1" as="geometry">
            <Array as="points">
              <mxPoint x="587" y="457" />
            </Array>
          </mxGeometry>
        </mxCell>
        <mxCell id="5F9uBmi5xAu1N6JX-gV2-52" value="[+-]" style="edgeLabel;html=1;align=center;verticalAlign=middle;resizable=0;points=[];fontSize=12;" vertex="1" connectable="0" parent="5F9uBmi5xAu1N6JX-gV2-51">
          <mxGeometry x="-0.4072" y="10" relative="1" as="geometry">
            <mxPoint as="offset" />
          </mxGeometry>
        </mxCell>
        <mxCell id="5F9uBmi5xAu1N6JX-gV2-55" style="edgeStyle=none;curved=1;rounded=0;orthogonalLoop=1;jettySize=auto;html=1;exitX=0;exitY=0;exitDx=0;exitDy=0;entryX=1;entryY=0;entryDx=0;entryDy=0;fontSize=12;startSize=8;endSize=8;" edge="1" parent="1" source="5F9uBmi5xAu1N6JX-gV2-48" target="5F9uBmi5xAu1N6JX-gV2-48">
          <mxGeometry relative="1" as="geometry">
            <Array as="points">
              <mxPoint x="738" y="240" />
            </Array>
          </mxGeometry>
        </mxCell>
        <mxCell id="5F9uBmi5xAu1N6JX-gV2-56" value="[0-9]" style="edgeLabel;html=1;align=center;verticalAlign=middle;resizable=0;points=[];fontSize=12;" vertex="1" connectable="0" parent="5F9uBmi5xAu1N6JX-gV2-55">
          <mxGeometry x="0.4589" y="-11" relative="1" as="geometry">
            <mxPoint x="-3" y="2" as="offset" />
          </mxGeometry>
        </mxCell>
        <mxCell id="5F9uBmi5xAu1N6JX-gV2-57" value="q3" style="ellipse;whiteSpace=wrap;html=1;aspect=fixed;" vertex="1" parent="1">
          <mxGeometry x="550" y="179" width="74" height="74" as="geometry" />
        </mxCell>
        <mxCell id="5F9uBmi5xAu1N6JX-gV2-58" value="q6" style="ellipse;whiteSpace=wrap;html=1;aspect=fixed;" vertex="1" parent="1">
          <mxGeometry x="701" y="318" width="74" height="74" as="geometry" />
        </mxCell>
        <mxCell id="5F9uBmi5xAu1N6JX-gV2-60" value="Q: {q0, q1, q2, q3, q4, q5, q6}&lt;div&gt;&lt;math style=&quot;color: rgb(240, 246, 252); text-align: start; background-color: rgb(13, 17, 23);&quot; xmlns=&quot;http://www.w3.org/1998/Math/MathML&quot;&gt;&lt;mi mathvariant=&quot;normal&quot;&gt;&lt;font style=&quot;color: rgb(0, 0, 0); background-color: rgb(255, 255, 255);&quot;&gt;Σ: {[0-9], \., [+-], [eE]}&lt;/font&gt;&lt;font style=&quot;color: rgb(0, 0, 0); background-color: rgb(255, 255, 255);&quot;&gt;q0: q0&lt;/font&gt;&lt;font style=&quot;color: rgb(0, 0, 0); background-color: rgb(255, 255, 255);&quot;&gt;F: q3, q6&lt;/font&gt;&lt;/mi&gt;&lt;/math&gt;&lt;/div&gt;" style="rounded=0;whiteSpace=wrap;html=1;" vertex="1" parent="1">
          <mxGeometry x="4" y="328" width="174" height="196" as="geometry" />
        </mxCell>
      </root>
    </mxGraphModel>
  </diagram>
</mxfile>
